<svg xmlns="http://www.w3.org/2000/svg" width="1039" height="369" viewBox="0 0 1039 369" version="1.1">
	<path d="M 184.667 24.667 C 183.823 25.511, 183.785 66.677, 184.625 70.875 L 185.250 74 255.625 74 L 326 74 326 184 L 326 294 351.500 294 L 377 294 377 184 L 377 74 443.250 74.017 C 516.132 74.036, 517.928 74.162, 529.625 80.076 C 532.994 81.779, 538.297 85.271, 541.409 87.836 C 546.243 91.820, 620.659 170.196, 665.528 218.560 C 721.485 278.877, 735 293.634, 735 294.421 C 735 294.740, 725.438 294.993, 713.750 294.985 C 680.697 294.962, 676.691 293.492, 658.259 274.615 C 636.938 252.780, 558.566 170.408, 516.587 125.713 C 505.842 114.273, 502.573 111.423, 497.111 108.733 L 490.548 105.500 453.524 105.500 L 416.500 105.500 416.245 199.750 L 415.990 294 441.995 294 L 468 294 468.050 221.750 L 468.099 149.500 480.800 162.614 C 532.521 216.021, 574.055 259.278, 594.469 281 C 624.638 313.101, 631.199 319.506, 640.526 325.953 C 649.866 332.410, 663.998 339.148, 674.500 342.153 C 682.463 344.432, 682.845 344.444, 756.750 344.763 L 831 345.084 831 222.042 L 831 99 805.500 99 L 780 99 780 183.083 C 780 229.329, 779.624 267.017, 779.165 266.833 C 778.120 266.416, 746.800 233.091, 722.133 206.149 C 682.960 163.364, 604.132 79.068, 585.611 60.155 C 567.391 41.551, 548.101 30.504, 525.954 25.991 C 516.434 24.050, 511.989 24, 350.760 24 C 259.775 24, 185.033 24.300, 184.667 24.667" stroke="none" fill="#FAFAFA" fill-rule="evenodd"/>
</svg>