<svg xmlns="http://www.w3.org/2000/svg" width="928" height="812" viewBox="0 0 928 812" version="1.1">
	<path d="M 441.724 2.023 C 417.048 4.837, 388.912 11.679, 367.289 20.124 C 331.902 33.944, 294.784 58.463, 266.621 86.623 C 219.222 134.016, 188.560 195.020, 178.512 261.923 C 177.124 271.159, 176.523 285.048, 177.627 282.356 C 178.593 280, 181.883 282.151, 182.207 285.352 C 182.413 287.385, 182.980 285.490, 183.807 280 C 188.080 251.641, 190.791 239.050, 197.109 218.213 C 218.509 147.637, 265.645 87.030, 328.500 49.275 C 391.964 11.153, 466.753 0.404, 536.167 19.428 C 554.246 24.383, 566.244 29.009, 584.858 38.200 C 612.004 51.604, 634.414 67.585, 657.042 89.674 C 682.115 114.150, 699.647 138.172, 715.314 169.517 C 732.952 204.802, 742.023 236.826, 747.886 284.500 C 748.360 288.350, 748.804 290.176, 748.874 288.559 C 748.991 285.838, 749.101 285.756, 750.348 287.462 C 751.090 288.476, 752.183 289.005, 752.777 288.638 C 753.398 288.254, 754.042 288.932, 754.292 290.235 C 755.210 295.010, 754.950 281.841, 753.921 271.424 C 750.033 232.067, 736.647 189.365, 717.269 154.500 C 686.532 99.197, 642.098 56.391, 587.500 29.487 C 560.949 16.403, 533.636 7.677, 506 3.448 C 493.718 1.569, 453.520 0.678, 441.724 2.023 M 435.500 75.566 C 377.395 83.470, 326.788 107.554, 285.881 146.772 C 267.336 164.551, 252.836 184.576, 240.656 209.231 C 230.037 230.726, 223.594 251.263, 220.517 273.424 C 218.522 287.788, 218.521 287.744, 221.009 285.492 C 223.095 283.604, 223.787 281.557, 226.578 269 C 236.099 226.177, 262.644 181.036, 295.500 151.799 C 332.770 118.633, 374.862 98.835, 427 89.949 C 445.038 86.875, 476.888 86.166, 495.008 88.437 C 552.622 95.656, 601.027 118.557, 640.836 157.430 C 669.190 185.117, 688.759 217.560, 700.294 256 C 702.192 262.325, 704.298 270.513, 704.975 274.195 C 705.692 278.095, 707.207 282.247, 708.603 284.139 L 711 287.389 711 284.444 C 710.999 278.614, 706.994 257.248, 703.606 245 C 686.447 182.975, 639.532 129.065, 576.500 98.944 C 550.191 86.371, 526.603 79.455, 496.699 75.543 C 482.130 73.638, 449.587 73.650, 435.500 75.566 M 442.500 155.659 C 370.694 163.477, 300.665 202.562, 246.916 264.819 C 234.753 278.907, 217 301.601, 217 303.061 C 217 305.395, 239.423 332.963, 255.644 350.572 C 284.634 382.044, 324.570 411.368, 359.500 426.832 C 406.657 447.708, 455.806 454.414, 503.015 446.413 C 568.864 435.252, 631.704 397.967, 684.891 338.500 C 699.854 321.770, 714 304.523, 714 303.009 C 714 301.651, 696.994 280.497, 683.445 265 C 671.310 251.121, 650.219 230.773, 637.081 220.271 C 611.614 199.911, 577.378 179.973, 551.640 170.510 C 538.167 165.557, 519.702 160.599, 504.872 157.953 C 494.941 156.181, 487.962 155.694, 469.500 155.485 C 456.850 155.341, 444.700 155.420, 442.500 155.659 M 438.127 169.115 C 381.046 175.738, 323.935 203.599, 273.578 249.388 C 263.231 258.796, 246.551 276.827, 233.827 292.356 C 226.206 301.658, 225.111 303.448, 226.181 304.856 C 233.976 315.113, 249.517 332.505, 262.500 345.503 C 312.251 395.308, 367.220 425.014, 426.642 434.207 C 446.597 437.295, 479.753 437.287, 499.500 434.191 C 560.407 424.641, 614.825 395.803, 666.862 345.500 C 676.751 335.941, 695.402 315.953, 703.341 306.407 L 705.914 303.314 692.744 287.907 C 667.276 258.112, 642.704 235.624, 615 216.759 C 575.919 190.146, 538.107 175.238, 495 169.449 C 483.461 167.900, 450.282 167.705, 438.127 169.115 M 441.368 191.006 C 419.514 195.945, 397.117 209.955, 382.915 227.572 C 377.415 234.393, 374.519 238.854, 375.169 239.501 C 375.351 239.683, 380.675 240.791, 387 241.965 C 393.325 243.139, 410.200 246.323, 424.500 249.040 C 438.800 251.757, 458.076 255.280, 467.335 256.868 L 484.170 259.757 483.626 257.628 C 483.327 256.458, 477.776 240.542, 471.291 222.260 L 459.500 189.020 454.500 189.094 C 451.750 189.135, 445.841 189.996, 441.368 191.006 M 469 189.957 C 469 190.900, 476.755 212.751, 497.114 269.167 C 502.803 284.934, 507.794 297.627, 508.205 297.374 C 508.978 296.896, 522.748 277.733, 541.393 251.188 L 552.148 235.877 548.001 230.501 C 541.848 222.526, 528.914 210.552, 520.719 205.244 C 511.147 199.044, 497.494 193.245, 487.012 190.926 C 477.815 188.892, 469 188.418, 469 189.957 M 552.306 250.250 C 538.897 268.145, 493.053 335.426, 493.820 336.084 C 494.897 337.010, 560.923 345.244, 562.479 344.646 C 564.455 343.888, 568.845 329.329, 570.664 317.500 C 572.754 303.910, 571.928 285.849, 568.621 272.850 C 566.260 263.571, 558.495 245, 556.975 245 C 556.571 245, 554.470 247.363, 552.306 250.250 M 365.170 258.250 C 359.156 273.729, 357.576 282.713, 357.562 301.500 C 357.552 315.847, 357.844 318.635, 360.387 328.486 C 362.965 338.467, 371.420 359.066, 372.894 358.954 C 373.227 358.929, 380.019 348.916, 387.986 336.704 C 395.954 324.492, 410.241 302.682, 419.736 288.239 C 429.231 273.795, 437 261.584, 437 261.102 C 437 260.621, 434.863 259.908, 432.250 259.519 C 429.637 259.129, 414.996 256.378, 399.714 253.405 C 384.431 250.432, 371.303 248, 370.540 248 C 369.705 248, 367.564 252.086, 365.170 258.250 M 417.906 307.281 C 412.488 314.823, 378.911 365.068, 378.401 366.398 C 377.637 368.389, 386.455 379.108, 395.352 387.005 C 411.618 401.442, 432.224 410.820, 453.750 413.584 C 456.637 413.954, 458.994 414.087, 458.987 413.879 C 458.951 412.829, 454.486 399.691, 449.003 384.500 C 439.470 358.089, 427.121 323.401, 423.817 313.750 C 422.169 308.938, 420.524 305.014, 420.161 305.031 C 419.797 305.049, 418.783 306.061, 417.906 307.281 M 219.490 326.500 C 222.390 363.305, 241.514 408.222, 268.667 442 C 277.073 452.457, 293.489 468.832, 304.362 477.605 C 341.943 507.930, 391.001 528.223, 438.395 533.047 C 456.910 534.932, 489.046 533.817, 507 530.666 C 606.326 513.238, 687.627 439.325, 706.826 349 C 709.100 338.300, 711.513 320.180, 710.764 319.430 C 709.505 318.172, 706.613 325.115, 704.897 333.511 C 701.880 348.279, 693.628 372.053, 686.564 386.325 C 675.048 409.594, 660.796 429.291, 641.543 448.543 C 621.245 468.841, 602.135 482.508, 576.500 495.060 C 552.342 506.889, 529.828 513.978, 501.500 518.676 C 485.812 521.278, 442.245 521.271, 426.673 518.665 C 384.248 511.564, 345.448 495.272, 313.500 471.145 C 300.703 461.480, 276.502 437.281, 267.263 424.910 C 253.689 406.735, 241.994 385.524, 234.533 365.549 C 230.733 355.374, 224 330.299, 224 326.322 C 224 325.106, 222.844 322.849, 221.430 321.306 L 218.860 318.500 219.490 326.500 M 748.118 320.506 C 747.696 327.672, 744.739 349.099, 743.014 357.500 C 731.395 414.071, 707.213 462.605, 670.269 503.500 C 626.678 551.752, 567.390 583.801, 503.500 593.650 C 484.908 596.516, 442.509 596.294, 423.500 593.232 C 334.212 578.846, 260.321 525.160, 217.415 443.500 C 200.404 411.122, 189.637 376.312, 184.500 337.086 C 182.969 325.387, 182 321.942, 182 328.195 C 182 331.419, 181.785 331.681, 179.500 331.245 C 177.484 330.859, 177 330.176, 177 327.717 C 177 326.039, 176.734 324.933, 176.409 325.258 C 175.265 326.402, 178.123 351.667, 181.074 366.500 C 190.427 413.507, 211.856 459.696, 241.621 497 C 250.459 508.077, 277.176 534.816, 288 543.417 C 342.379 586.630, 415.592 610.072, 480.500 605.055 C 533.976 600.922, 576.765 586.565, 619.992 558.253 C 635.822 547.885, 648.077 537.870, 664.352 522.004 C 707.513 479.927, 737.531 424.710, 749.571 365.247 C 751.924 353.623, 755.032 328.119, 754.901 321.500 L 754.842 318.500 753.824 321.292 C 753.005 323.537, 752.531 323.856, 751.403 322.919 C 750.316 322.018, 749.973 322.065, 749.882 323.128 C 749.817 323.882, 749.420 323.150, 749 321.500 C 748.488 319.489, 748.198 319.161, 748.118 320.506 M 443.235 340.219 C 443.495 340.924, 449.213 357.475, 455.941 377 C 462.669 396.525, 468.575 412.917, 469.064 413.427 C 470.310 414.725, 484.646 412.394, 494.467 409.297 C 520.316 401.145, 541.128 383.969, 556.885 357.784 L 559.121 354.068 556.810 353.570 C 555.540 353.296, 547.300 352.181, 538.500 351.094 C 515.871 348.297, 451.258 340.129, 446.631 339.481 C 443.742 339.076, 442.882 339.263, 443.235 340.219 M 1 659.984 L 1 665 12 665 L 23 665 23 692.500 L 23 720 28 720 L 33 720 33.035 712.250 C 33.102 697.215, 33.372 665.998, 33.436 665.873 C 33.471 665.803, 38.450 665.465, 44.500 665.123 L 55.500 664.500 55.500 660 L 55.500 655.500 28.250 655.234 L 1 654.968 1 659.984 M 111 687.500 L 111 720 116 720 L 121 720 121 708.500 L 121 697 129.876 697 L 138.753 697 144.626 708.492 L 150.500 719.983 155.583 719.992 C 158.379 719.996, 160.892 719.774, 161.168 719.498 C 161.444 719.223, 159.060 713.935, 155.870 707.748 C 152.680 701.562, 150.055 696.269, 150.035 695.986 C 150.016 695.703, 151.837 694.353, 154.082 692.986 C 164.821 686.446, 166.881 671.409, 158.335 661.949 C 153.064 656.115, 148.167 655, 127.818 655 L 111 655 111 687.500 M 221.236 687.250 L 221.500 719.500 226.750 719.802 L 232 720.105 232 687.552 L 232 655 226.486 655 L 220.972 655 221.236 687.250 M 294.236 687.250 L 294.500 719.500 299.732 719.802 L 304.964 720.103 305.232 696.612 L 305.500 673.121 324 696.311 L 342.500 719.500 347.250 719.805 L 352 720.110 352 687.555 L 352 655 347.018 655 L 342.037 655 341.768 677.926 L 341.500 700.852 324.057 679.458 C 314.464 667.691, 306.229 657.374, 305.758 656.532 C 305.151 655.448, 303.304 655, 299.436 655 L 293.972 655 294.236 687.250 M 416 687.500 L 416 720.035 440.750 719.767 L 465.500 719.500 465.500 714.500 L 465.500 709.500 446.250 709.228 L 427 708.957 427 700.478 L 427 692 445 692 L 463 692 463 687 L 463 682 445 682 L 427 682 427 673.522 L 427 665.043 446.250 664.772 L 465.500 664.500 465.500 660 L 465.500 655.500 440.750 655.233 L 416 654.965 416 687.500 M 525 660 L 525 665 535.984 665 L 546.968 665 547.234 692.250 L 547.500 719.500 552.500 719.500 L 557.500 719.500 557.766 692.210 C 557.970 671.274, 558.320 664.957, 559.266 665.078 C 559.945 665.166, 564.888 665.184, 570.250 665.118 L 580 665 580 660 L 580 655 552.500 655 L 525 655 525 660 M 635 687.500 L 635 720 640 720 L 645 720 645 708.500 L 645 697 654.005 697 L 663.011 697 668.735 708.500 L 674.460 720 680.238 720 L 686.015 720 679.947 707.894 C 676.609 701.236, 674.018 695.705, 674.189 695.602 C 685.207 689.017, 689.073 681.317, 686.793 670.500 C 685.484 664.288, 679.464 657.777, 673.497 656.121 C 671.284 655.507, 661.798 655.009, 652.250 655.006 L 635 655 635 687.500 M 766.036 661.191 C 759.993 674.272, 740 719.127, 740 719.603 C 740 719.876, 742.563 719.965, 745.696 719.800 L 751.393 719.500 761.946 695.751 C 767.751 682.688, 772.793 672.001, 773.152 672.001 C 773.511 672, 774.236 673.237, 774.763 674.750 C 775.290 676.263, 779.890 687.063, 784.985 698.750 L 794.248 720 799.624 720 C 802.581 720, 805 719.559, 805 719.019 C 805 718.181, 797.664 701.440, 780.889 664 L 777.081 655.500 773.015 655.191 L 768.950 654.883 766.036 661.191 M 861.236 687.250 L 861.500 719.500 866.404 719.500 L 871.308 719.500 871.404 700.311 C 871.457 689.757, 871.814 681.432, 872.197 681.811 C 872.580 682.190, 876.525 690.338, 880.964 699.918 C 885.403 709.499, 889.551 717.959, 890.182 718.720 C 890.827 719.496, 892.666 719.970, 894.380 719.801 C 897.292 719.514, 897.848 718.624, 906.693 700.091 L 915.956 680.682 916.228 700.091 L 916.500 719.500 921.500 719.500 L 926.500 719.500 926.764 687.197 L 927.028 654.895 921.966 655.197 L 916.905 655.500 907.872 674.500 C 902.904 684.950, 897.734 695.956, 896.383 698.958 L 893.926 704.416 882.265 679.708 L 870.605 655 865.788 655 L 860.972 655 861.236 687.250 M 121.667 665.667 C 121.300 666.033, 121 670.758, 121 676.167 L 121 686 132.953 686 C 146.137 686, 149.377 685.105, 151.575 680.855 C 154.839 674.544, 151.993 667.925, 145.205 666.040 C 141.110 664.903, 122.722 664.611, 121.667 665.667 M 645.657 665.677 C 645.295 666.038, 645 670.758, 645 676.167 L 645 686 657.050 686 C 670.697 686, 673.943 684.967, 676.015 679.964 C 677.779 675.704, 676.321 670.301, 672.678 667.597 C 670.244 665.790, 668.239 665.469, 658.085 665.261 C 651.610 665.129, 646.018 665.316, 645.657 665.677 M 103.551 777.777 C 103.151 778.175, 102.233 779.850, 101.512 781.500 C 93.309 800.254, 89 810.278, 89 810.605 C 89 810.822, 90.129 811, 91.508 811 C 93.501 811, 94.345 810.178, 95.617 807 L 97.217 803 104.457 803 L 111.697 803 113.268 807 C 114.530 810.213, 115.342 811, 117.395 811 C 120.436 811, 120.739 812.047, 111.812 791.736 C 105.719 777.872, 104.881 776.456, 103.551 777.777 M 145 793.930 L 145 811 147.524 811 L 150.048 811 149.774 794.250 C 149.504 777.736, 149.468 777.496, 147.250 777.180 L 145 776.861 145 793.930 M 213.923 779.923 C 208.346 785.500, 210.484 791.196, 219.946 795.973 C 226.489 799.276, 227.738 801.225, 225.500 804.641 C 223.682 807.415, 220.253 807.699, 215.879 805.437 C 213.522 804.219, 212.542 804.135, 211.428 805.060 C 209.406 806.738, 209.617 807.342, 212.904 809.284 C 217.011 811.710, 225.024 811.556, 228.288 808.988 C 229.695 807.881, 231.138 805.647, 231.495 804.023 C 232.545 799.240, 230.183 795.899, 222.991 792 C 215.746 788.071, 214.308 785.299, 218.127 782.624 C 220.345 781.070, 224.260 781.306, 226.598 783.134 C 227.270 783.660, 228.372 783.246, 229.438 782.069 C 231.112 780.219, 231.061 780.083, 228.139 778.572 C 223.097 775.964, 217.334 776.512, 213.923 779.923 M 258.992 781.250 C 258.988 783.587, 258.695 791.237, 258.342 798.250 L 257.701 811 260.316 811 L 262.932 811 263.216 800.250 L 263.500 789.500 268.827 800.250 C 271.757 806.163, 274.571 811, 275.080 811 C 275.589 811, 278.103 806.480, 280.667 800.956 C 283.783 794.242, 285.600 791.342, 286.149 792.206 C 286.600 792.918, 286.976 797.438, 286.985 802.250 L 287 811 289.614 811 L 292.228 811 291.501 794.750 C 291.101 785.813, 290.574 778.163, 290.328 777.750 C 290.083 777.337, 289.213 777, 288.395 777 C 287.070 777, 283.720 783.330, 277.015 798.500 L 275.247 802.500 269.189 789.750 C 264.313 779.488, 262.728 777, 261.065 777 C 259.303 777, 258.999 777.624, 258.992 781.250 M 330.073 781.568 C 328.933 784.145, 328 786.434, 328 786.655 C 328 786.875, 325.750 791.980, 323 798 C 320.250 804.020, 318 809.407, 318 809.972 C 318 810.538, 319.076 811, 320.391 811 C 322.248 811, 323.141 810.105, 324.383 807 L 325.984 803 333.072 803 L 340.161 803 341.732 807 C 342.944 810.085, 343.841 811, 345.652 811 C 346.943 811, 348 810.628, 348 810.172 C 348 807.707, 334.506 777.669, 333.204 777.235 C 332.622 777.041, 331.213 778.991, 330.073 781.568 M 374.667 777.667 C 374.300 778.033, 374 785.683, 374 794.667 L 374 811 376.500 811 C 378.931 811, 379 810.805, 379 803.930 C 379 797.171, 379.099 796.875, 381.250 797.180 C 382.756 797.394, 384.956 799.731, 387.903 804.250 C 391.273 809.415, 392.858 811, 394.653 811 C 395.944 811, 397 810.783, 397 810.518 C 397 810.252, 395.275 807.215, 393.167 803.768 L 389.335 797.500 392.667 794.391 C 395.286 791.949, 396 790.488, 396 787.576 C 396 782.583, 394.500 780.107, 390.452 778.415 C 387.010 776.977, 375.884 776.450, 374.667 777.667 M 420.698 777.636 C 420.314 778.019, 420 779.158, 420 780.167 C 420 781.664, 420.799 782, 424.352 782 L 428.704 782 429.346 790.250 C 429.699 794.788, 429.991 801.313, 429.994 804.750 C 429.999 810.331, 430.214 811, 432 811 C 433.908 811, 434 810.333, 434 796.500 L 434 782 439.070 782 C 443.755 782, 444.115 781.829, 443.820 779.750 C 443.513 777.592, 443.050 777.489, 432.448 777.219 C 426.369 777.065, 421.081 777.252, 420.698 777.636 M 512.848 779.018 C 502.495 784.487, 501.490 801.066, 511.077 808.212 C 517.533 813.023, 527.895 812.162, 532.960 806.393 C 535.474 803.530, 536 802.071, 536 797.965 L 536 793 530 793 C 526.700 793, 523.663 792.888, 523.250 792.750 C 522.837 792.612, 522.356 793.513, 522.180 794.750 C 521.889 796.802, 522.264 797, 526.430 797 C 530.821 797, 531 797.115, 531 799.943 C 531 805.308, 523.260 808.389, 516.684 805.641 C 504.017 800.349, 508.283 781.630, 522.112 781.821 C 524.182 781.850, 526.956 782.580, 528.276 783.445 C 530.499 784.902, 530.804 784.875, 532.431 783.076 C 534.130 781.199, 534.056 781.069, 530.133 779.068 C 525.003 776.451, 517.747 776.430, 512.848 779.018 M 564 793.930 L 564 811 573 811 C 581.933 811, 582 810.981, 582 808.500 C 582 806.091, 581.765 806, 575.527 806 L 569.055 806 568.777 791.750 C 568.506 777.830, 568.448 777.493, 566.250 777.180 L 564 776.861 564 793.930 M 613.635 792.721 C 609.859 801.364, 606.549 809.013, 606.278 809.718 C 605.955 810.559, 606.685 811, 608.401 811 C 610.519 811, 611.321 810.239, 612.617 807 L 614.217 803 621.457 803 L 628.697 803 630.268 807 C 631.558 810.285, 632.320 811, 634.527 811 C 636.292 811, 637.032 810.571, 636.685 809.750 C 633.202 801.526, 623.271 779.206, 622.669 778.250 C 622.236 777.563, 621.571 777.001, 621.191 777.003 C 620.811 777.005, 617.411 784.078, 613.635 792.721 M 666.500 778.155 C 663.240 779.938, 662 782.152, 662 786.191 C 662 790.610, 664.130 793.192, 669.690 795.515 C 676.680 798.436, 678.785 802.072, 675.429 805.429 C 673.416 807.442, 670.685 807.419, 666.333 805.354 C 663.177 803.856, 662.722 803.849, 661.290 805.282 C 659.857 806.714, 660.021 807.043, 663.108 808.924 C 669.203 812.640, 678.645 811.269, 680.890 806.343 C 683.631 800.326, 680.841 795.278, 672.883 791.855 C 667.282 789.445, 665.397 786.996, 666.933 784.125 C 668.308 781.555, 671.042 781.029, 675.340 782.506 C 678.393 783.555, 679.156 783.517, 680.198 782.261 C 683.263 778.568, 671.946 775.176, 666.500 778.155 M 710.923 779.923 C 705.306 785.540, 707.480 791.195, 717.132 796.067 C 722.746 798.901, 723.101 799.289, 722.810 802.277 C 722.382 806.682, 718.488 808.080, 713.403 805.655 C 710.624 804.330, 709.466 804.199, 708.394 805.088 C 707.627 805.724, 707 806.628, 707 807.097 C 707 808.820, 713.040 811, 717.815 811 C 723.642 811, 727.519 808.467, 728.495 804.023 C 729.545 799.240, 727.183 795.899, 719.991 792 C 712.746 788.071, 711.308 785.299, 715.127 782.624 C 717.343 781.071, 721.464 781.311, 723.426 783.105 C 724.511 784.097, 727 782.309, 727 780.538 C 727 778.749, 722.488 777, 717.876 777 C 714.755 777, 713.187 777.659, 710.923 779.923 M 756 793.964 L 756 811 766.070 811 C 775.940 811, 776.133 810.956, 775.820 808.750 C 775.527 806.689, 774.900 806.476, 768.347 806.208 L 761.195 805.916 760.835 801.388 C 760.636 798.897, 760.668 796.666, 760.904 796.429 C 761.140 796.193, 764.408 796, 768.167 796 C 774.333 796, 775 795.805, 775 794 C 775 792.195, 774.333 792, 768.167 792 C 764.408 792, 761.140 791.807, 760.904 791.571 C 760.668 791.334, 760.638 789.084, 760.838 786.571 L 761.201 782 768.670 782 C 775.844 782, 776.126 781.911, 775.820 779.750 C 775.516 777.616, 774.999 777.485, 765.750 777.214 L 756 776.928 756 793.964 M 807.500 778.097 C 804.294 779.944, 803 782.146, 803 785.757 C 803 790.711, 804.615 792.946, 809.836 795.217 C 815.878 797.846, 818 799.770, 818 802.620 C 818 806.784, 811.494 808.435, 807.130 805.378 C 804.995 803.883, 804.689 803.883, 803.193 805.378 C 801.702 806.870, 801.701 807.130, 803.183 808.611 C 805.010 810.438, 812.587 811.571, 816.466 810.598 C 820.600 809.560, 823 806.471, 823 802.189 C 823 797.700, 820.442 794.492, 815.108 792.290 C 810.166 790.250, 808 788.126, 808 785.320 C 808 781.935, 812.024 780.565, 816.488 782.431 C 819.443 783.665, 820.039 783.658, 821.105 782.374 C 822.084 781.194, 822.011 780.582, 820.739 779.310 C 818.762 777.333, 810.190 776.547, 807.500 778.097 M 379 787.500 L 379 793 382.777 793 C 387.823 793, 391 790.673, 391 786.978 C 391 783.446, 388.696 782, 383.066 782 L 379 782 379 787.500 M 103.094 789.250 C 102.623 790.487, 101.532 793.188, 100.670 795.250 L 99.102 799 104.159 799 C 109.812 799, 109.883 798.751, 106.516 790.692 C 104.719 786.393, 104.256 786.198, 103.094 789.250 M 330.785 791.254 C 327.409 799.611, 327.243 799, 332.893 799 C 335.702 799, 338 798.815, 338 798.589 C 338 797.363, 333.627 787.001, 333.111 787.004 C 332.775 787.006, 331.728 788.918, 330.785 791.254 M 619.559 790.500 C 615.580 799.684, 615.462 799, 621.025 799 C 626.805 799, 626.950 798.583, 623.633 791.500 L 621.291 786.500 619.559 790.500" stroke="none" fill="#0A0A0A" fill-rule="evenodd"/>
</svg>