<svg xmlns="http://www.w3.org/2000/svg" width="1240" height="345" viewBox="0 0 1240 345" version="1.1">
	<path d="M 145.500 1.676 C 131.957 3.376, 110.545 9.524, 97.562 15.440 C 55.911 34.422, 21.440 74.580, 7.597 120.248 C 2.516 137.012, 0.927 146.652, 0.288 164.583 C -0.947 199.261, 4.370 225.574, 18.233 253.396 C 27.107 271.203, 38.246 286.185, 53.691 301.083 C 103.042 348.690, 174.269 357.624, 234.500 323.763 C 263.776 307.304, 289.155 279.916, 304.003 248.759 C 314.026 227.725, 318.951 207.801, 319.513 186 C 319.871 172.103, 319.774 172.196, 317.935 187.500 C 315.657 206.464, 309.013 228.944, 300.647 245.987 C 276.857 294.459, 234.462 327.306, 183.500 336.751 C 169.891 339.274, 144.514 338.994, 131.352 336.176 C 104.043 330.330, 80.260 318.395, 59.413 300.075 C 27.739 272.240, 6.252 228.590, 2.027 183.500 C -2.278 137.547, 23.704 77.067, 61.619 44.783 C 73.741 34.461, 82.775 28.534, 96.500 21.898 C 116.425 12.264, 134.301 7.620, 156.293 6.364 C 187.070 4.606, 222.770 15.877, 249.500 35.791 C 289.662 65.712, 313.173 109.312, 318.903 164.500 L 319.734 172.500 319.867 164.301 C 320.035 153.937, 317.717 136.082, 314.615 123.854 C 307.464 95.666, 291.650 68.390, 270.054 47 C 240.538 17.765, 199.982 0.690, 161.151 1.150 C 154.193 1.232, 147.150 1.469, 145.500 1.676 M 378.247 173.736 C 378.486 315.432, 378.594 323.491, 380.250 323.810 C 381.910 324.129, 382 316.462, 382 174.073 C 382 24.585, 381.992 24, 379.997 24 C 378 24, 377.994 24.501, 378.247 173.736 M 148 43.611 C 132.908 45.480, 114.943 50.998, 100 58.353 C 70.941 72.657, 44.780 100.851, 33.520 130 C 31.076 136.325, 28.333 144.425, 27.423 148 C 25.552 155.349, 24.078 166.003, 24.934 165.994 C 25.245 165.991, 26.332 162.504, 27.348 158.244 C 33.417 132.815, 45.965 110.350, 64.735 91.308 C 84.429 71.329, 103.364 60.372, 131.294 52.793 C 138.580 50.816, 141.909 50.566, 161 50.559 C 179.725 50.552, 183.676 50.834, 191.611 52.747 C 217.602 59.011, 238.509 70.441, 256.032 87.967 C 273.944 105.881, 287.545 131.091, 293.544 157.500 C 296.086 168.691, 296.531 164.419, 294.077 152.387 C 282.790 97.055, 243.201 57.045, 188.760 45.951 C 178.886 43.939, 155.973 42.623, 148 43.611 M 147.500 90.948 C 123.595 93.336, 96.454 103.967, 76.500 118.757 C 66.301 126.317, 38.204 153.832, 29.529 164.755 L 23.767 172.010 27.595 176.755 C 57.053 213.275, 86.515 236.365, 115.914 245.972 C 130.582 250.765, 141.529 252.365, 159.500 252.341 C 178.501 252.316, 189.215 250.611, 206.327 244.891 C 230.979 236.650, 253.137 222.466, 270.517 203.800 C 277.004 196.834, 289.968 181.080, 294.769 174.329 L 297.024 171.158 287.777 159.829 C 276.967 146.584, 260.545 129.898, 250.220 121.669 C 221.871 99.075, 182.880 87.414, 147.500 90.948 M 147 97.622 C 103.598 103.165, 68.099 124.699, 33.084 166.723 L 28.732 171.947 34.545 179.223 C 43.777 190.781, 64.667 210.925, 74.760 218.005 C 105.116 239.296, 138.921 249.195, 170.788 246.125 C 209.508 242.395, 240.392 227.679, 268.552 199.543 C 278.754 189.350, 292 173.656, 292 171.761 C 292 170.012, 281.047 157.172, 270.403 146.444 C 244.889 120.728, 222.403 107.847, 190 100.385 C 179.666 98.005, 155.938 96.480, 147 97.622 M 146.263 111.514 C 137.214 113.480, 128.449 118.495, 120.992 125.973 C 114.954 132.028, 111.090 137.424, 112.082 138.415 C 112.312 138.645, 123.750 140.679, 137.500 142.935 C 171.062 148.443, 170.289 148.338, 169.869 147.322 C 169.666 146.831, 166.627 138.232, 163.116 128.214 C 155.939 107.739, 157.324 109.111, 146.263 111.514 M 163.614 112.750 C 163.972 114.263, 167.627 124.725, 171.734 136 C 175.842 147.275, 180.149 159.313, 181.306 162.750 C 182.462 166.188, 183.654 168.984, 183.954 168.964 C 184.672 168.916, 206.412 138.883, 206.798 137.406 C 206.961 136.780, 203.710 132.669, 199.573 128.271 C 191.306 119.483, 182.777 114.219, 172.448 111.528 C 163.850 109.289, 162.827 109.431, 163.614 112.750 M 467 117.482 L 467 122 476.500 122 L 486 122 486 144 L 486 166 490 166 L 494 166 494 144.036 L 494 122.072 503.750 121.786 L 513.500 121.500 513.500 117.500 L 513.500 113.500 490.250 113.232 L 467 112.963 467 117.482 M 559 139.500 L 559 166 563 166 L 567 166 567 156 L 567 146 573.818 146 L 580.637 146 587.401 156 L 594.166 166 599.158 166 L 604.149 166 597.575 156.570 C 593.959 151.384, 591 146.659, 591 146.070 C 591 145.482, 591.945 145, 593.100 145 C 596.114 145, 601.591 139.096, 603.029 134.297 C 605.431 126.281, 601.662 118.568, 593.541 114.880 C 590.195 113.360, 586.878 113.040, 574.250 113.022 L 559 113 559 139.500 M 654 139.500 L 654 166 658 166 L 662 166 662 139.500 L 662 113 658 113 L 654 113 654 139.500 M 715 139.500 L 715 166 718.978 166 L 722.957 166 723.228 146.885 L 723.500 127.770 739.799 146.885 C 755.129 164.864, 756.303 166, 759.549 166 L 763 166 763 139.500 L 763 113 759 113 L 755 113 755 132 C 755 142.450, 754.663 150.968, 754.250 150.928 C 753.837 150.888, 750.054 146.726, 745.841 141.678 C 722.251 113.408, 721.860 113, 718.321 113 L 715 113 715 139.500 M 814 139.500 L 814 166 834.500 166 L 855 166 855 162 L 855 158 838.500 158 L 822 158 822 151 L 822 144 838 144 L 854 144 854 139.500 L 854 135 838 135 L 822 135 822 128.500 L 822 122 838.500 122 L 855 122 855 117.500 L 855 113 834.500 113 L 814 113 814 139.500 M 901.401 114.397 C 901.099 115.186, 900.997 117.107, 901.175 118.666 L 901.500 121.500 911 121.783 L 920.500 122.066 920.288 144.033 L 920.075 166 924.538 166 L 929 166 929 144.038 L 929 122.075 938.250 121.788 L 947.500 121.500 947.500 117.500 L 947.500 113.500 924.726 113.231 C 905.692 113.006, 901.861 113.198, 901.401 114.397 M 995 139.414 L 995 166 999 166 L 1003 166 1003 156 L 1003 146 1009.781 146 L 1016.562 146 1023.129 155.750 L 1029.696 165.500 1034.348 165.805 C 1036.907 165.972, 1039 165.841, 1039 165.512 C 1039 165.183, 1036.300 160.939, 1033 156.080 C 1026.696 146.798, 1025.981 145, 1028.596 145 C 1031.019 145, 1035.848 141.194, 1037.515 137.971 C 1039.825 133.504, 1039.439 124.947, 1036.747 120.952 C 1032.356 114.437, 1029.419 113.540, 1011.250 113.164 L 995 112.828 995 139.414 M 1107.098 121.182 C 1104.969 125.757, 1099.350 137.526, 1094.613 147.336 C 1089.876 157.146, 1086 165.359, 1086 165.586 C 1086 165.814, 1087.926 166, 1090.279 166 L 1094.559 166 1100.723 152.750 C 1104.113 145.463, 1108.277 136.387, 1109.976 132.583 C 1111.694 128.737, 1113.430 126.073, 1113.885 126.583 C 1114.336 127.087, 1118.672 136.162, 1123.522 146.750 L 1132.341 166 1136.670 166 C 1139.052 166, 1141 165.841, 1141 165.647 C 1141 165.453, 1135.464 153.641, 1128.697 139.397 C 1117.393 115.601, 1116.175 113.474, 1113.683 113.182 C 1111.175 112.888, 1110.679 113.492, 1107.098 121.182 M 1186 139.500 L 1186 166 1189.976 166 L 1193.952 166 1194.226 149.512 L 1194.500 133.023 1202 149.499 C 1209.312 165.563, 1209.577 165.976, 1212.560 165.988 C 1215.548 166, 1215.799 165.609, 1223.293 149.250 L 1230.966 132.500 1230.983 149.250 L 1231 166 1235 166 L 1239 166 1239 139.500 L 1239 113 1235.622 113 C 1233.765 113, 1231.832 113.563, 1231.328 114.250 C 1230.449 115.447, 1225.869 125.105, 1216.980 144.500 L 1212.855 153.500 1210.988 150 C 1209.962 148.075, 1205.642 138.963, 1201.388 129.750 L 1193.655 113 1189.828 113 L 1186 113 1186 139.500 M 567 130 L 567 138 578.444 138 C 589.043 138, 590.092 137.825, 592.644 135.630 C 596.290 132.494, 596.511 126.642, 593.089 123.871 C 591.121 122.277, 589.016 122, 578.889 122 L 567 122 567 130 M 1003 130.084 L 1003 138.167 1015.091 137.834 C 1026.389 137.522, 1027.306 137.345, 1029.091 135.139 C 1031.580 132.061, 1031.516 127.925, 1028.927 124.635 C 1026.895 122.051, 1026.622 122, 1014.927 122 L 1003 122 1003 130.084 M 105.521 150.259 C 102.226 159.085, 101.130 173.140, 102.923 183.563 C 104.283 191.471, 108.589 201.836, 109.928 200.425 C 110.411 199.916, 115.643 192.525, 121.555 184 C 127.468 175.475, 135.161 164.388, 138.652 159.362 C 142.144 154.335, 145 149.948, 145 149.612 C 145 149.275, 143.762 148.996, 142.250 148.990 C 139.877 148.982, 116.544 144.981, 110.362 143.523 C 108.492 143.081, 107.887 143.923, 105.521 150.259 M 207.508 145.781 C 202.636 152.432, 182.606 180.690, 178.986 186.021 L 174.988 191.907 178.244 192.461 C 187.279 193.997, 208.090 197, 209.683 196.996 C 214.899 196.985, 218.935 172.580, 215.968 159 C 214.844 153.858, 210.792 142.984, 210.017 143.031 C 209.733 143.049, 208.604 144.286, 207.508 145.781 M 130.476 180.737 C 120.389 194.644, 115.448 201.582, 113.688 204.310 L 111.876 207.119 119.688 214.894 C 124.137 219.322, 130.299 224.220, 134 226.270 C 140.205 229.707, 153.473 233.860, 154.612 232.722 C 155.106 232.227, 141.426 189.814, 137.198 178.737 L 135.381 173.975 130.476 180.737 M 25.070 182.792 C 24.980 188.301, 27.469 200.450, 30.631 209.934 C 43.785 249.387, 76.763 282.389, 116 295.366 C 129.279 299.758, 137.881 301.170, 154.649 301.710 C 180.465 302.541, 197.830 298.727, 221.500 287.025 C 240.967 277.401, 253.336 267.751, 266.544 251.882 C 281.496 233.918, 290.618 214.587, 294.567 192.500 C 296.861 179.671, 296.056 178.557, 293.122 190.500 C 289.784 204.094, 286.311 212.913, 279.805 224.315 C 260.245 258.596, 229.618 282.301, 193.060 291.455 C 159.749 299.796, 127.729 296.222, 97.736 280.815 C 61.813 262.363, 35.578 227.594, 26.948 187 C 25.416 179.794, 25.130 179.154, 25.070 182.792 M 148 194.009 C 148 194.666, 159.061 227.567, 160.521 231.250 C 161.453 233.602, 166.128 233.520, 174.145 231.010 C 182.197 228.490, 189.120 224.495, 195.715 218.567 C 200.792 214.001, 208 205.083, 208 203.365 C 208 202.888, 196.637 200.782, 182.750 198.685 C 168.863 196.588, 155.363 194.523, 152.750 194.095 C 150.137 193.667, 148 193.628, 148 194.009 M 596.576 213.333 C 591.807 218.102, 593.895 223.452, 602.054 227.367 C 607.531 229.995, 608.558 233.333, 604.464 235.199 C 602.227 236.218, 601.291 236.130, 598.730 234.660 C 596.143 233.175, 595.457 233.114, 594.303 234.268 C 592.334 236.237, 595.688 239.014, 600.874 239.710 C 604.398 240.183, 605.286 239.868, 607.952 237.202 C 613.257 231.897, 611.668 227.070, 603.415 223.420 C 598.950 221.445, 598 220.588, 598 218.532 C 598 215.567, 601.830 214.146, 605.416 215.780 C 606.747 216.386, 608.266 216.454, 609.092 215.943 C 611.333 214.557, 608.027 211.947, 603.214 211.302 C 599.776 210.841, 598.756 211.153, 596.576 213.333 M 859.418 211.914 C 856.173 213.312, 852.147 218.697, 851.410 222.626 C 849.235 234.223, 859.941 242.875, 870.873 238.355 L 875.500 236.441 875.799 230.167 L 876.098 223.892 870.799 224.196 C 866.891 224.420, 865.500 224.894, 865.500 226 C 865.500 226.967, 866.675 227.613, 868.808 227.818 C 871.870 228.112, 872.094 228.372, 871.808 231.318 C 871.543 234.059, 870.992 234.626, 867.834 235.406 C 860.157 237.303, 854.239 231.710, 855.328 223.589 C 856.313 216.248, 864.276 212.514, 870.394 216.523 C 872.354 217.807, 872.896 217.831, 873.855 216.674 C 876.672 213.280, 865.104 209.466, 859.418 211.914 M 953 211.714 C 951.789 212.006, 947.035 222.516, 941.449 237.250 C 940.945 238.581, 941.303 239, 942.945 239 C 944.445 239, 945.423 238.084, 946.150 236 C 947.163 233.094, 947.394 233, 953.500 233 C 959.606 233, 959.837 233.094, 960.850 236 C 961.554 238.019, 962.567 239, 963.948 239 C 965.077 239, 966 238.728, 966 238.395 C 966 238.063, 963.750 232.441, 961 225.904 C 958.250 219.366, 956 213.589, 956 213.067 C 956 211.799, 954.831 211.272, 953 211.714 M 993.017 212.237 C 990.031 213.807, 988.467 217.740, 989.381 221.381 C 989.880 223.371, 991.493 224.731, 995.774 226.771 C 1001.632 229.563, 1003.176 231.878, 1000.960 234.548 C 999.396 236.433, 994.591 236.416, 993.017 234.521 C 992.073 233.383, 991.325 233.291, 989.773 234.121 C 987.765 235.196, 987.765 235.209, 989.731 237.176 C 990.818 238.262, 993.551 239.398, 995.805 239.701 C 999.410 240.184, 1000.271 239.883, 1002.952 237.202 C 1008.272 231.882, 1006.669 227.070, 998.348 223.390 C 993.891 221.419, 992.925 220.567, 993.183 218.835 C 993.666 215.591, 996.370 214.324, 999.936 215.670 C 1002.244 216.541, 1003.162 216.510, 1003.974 215.531 C 1006.429 212.573, 997.489 209.885, 993.017 212.237 M 1032.750 212.977 C 1030.763 214.544, 1030 216.043, 1030 218.381 C 1030 222.682, 1031.554 224.509, 1037.271 226.928 C 1042.566 229.169, 1043.698 230.827, 1042.042 233.922 C 1040.676 236.475, 1036.408 236.679, 1033.798 234.317 C 1032.144 232.821, 1031.771 232.800, 1030.438 234.134 C 1028.072 236.499, 1032.022 239.500, 1037.500 239.500 C 1042.252 239.500, 1045.445 237.349, 1046.412 233.496 C 1047.501 229.157, 1045.428 226.164, 1039.524 223.553 C 1034.920 221.517, 1034 220.688, 1034 218.574 C 1034 215.540, 1037.813 214.138, 1041.498 215.817 C 1044.516 217.192, 1046.920 215.008, 1044.552 213.043 C 1041.678 210.658, 1035.734 210.625, 1032.750 212.977 M 1118.017 212.237 C 1115.073 213.784, 1113.464 217.729, 1114.345 221.237 C 1114.796 223.034, 1116.623 224.577, 1120.730 226.627 C 1126.890 229.703, 1128.484 232.442, 1125.418 234.684 C 1122.964 236.478, 1120.029 236.336, 1117.798 234.317 C 1116.144 232.821, 1115.771 232.800, 1114.438 234.134 C 1112.029 236.543, 1116.026 239.500, 1121.692 239.500 C 1125.362 239.500, 1126.610 238.992, 1128.587 236.694 C 1133.108 231.438, 1131.328 226.920, 1123.348 223.390 C 1118.891 221.419, 1117.925 220.567, 1118.183 218.835 C 1118.666 215.591, 1121.370 214.324, 1124.936 215.670 C 1127.244 216.541, 1128.162 216.510, 1128.974 215.531 C 1131.429 212.573, 1122.489 209.885, 1118.017 212.237 M 493.057 214.250 C 492.566 215.488, 490.102 221.379, 487.582 227.343 C 485.062 233.307, 483 238.369, 483 238.593 C 483 238.817, 483.845 239, 484.879 239 C 486.023 239, 487.243 237.828, 488 236 C 489.193 233.119, 489.490 233, 495.500 233 C 501.510 233, 501.807 233.119, 503 236 C 503.791 237.909, 504.965 239, 506.228 239 C 507.408 239, 508.018 238.493, 507.730 237.750 C 498.292 213.388, 497.651 212, 495.832 212 C 494.797 212, 493.548 213.012, 493.057 214.250 M 532.804 225.498 C 533.088 238.104, 533.237 239, 535.054 239 C 536.886 239, 537 238.208, 537 225.500 C 537 212.167, 536.972 212, 534.750 211.998 C 532.513 211.997, 532.502 212.073, 532.804 225.498 M 636 225.500 C 636 238.333, 636.099 239, 638 239 C 639.869 239, 640 238.333, 640 228.833 C 640 223.242, 640.337 219.003, 640.748 219.415 C 641.159 219.826, 643.082 224.284, 645.021 229.322 C 647.013 234.496, 649.190 238.604, 650.024 238.764 C 651.058 238.961, 652.698 235.969, 655.500 228.773 L 659.500 218.500 659.785 228.750 C 660.047 238.176, 660.228 239, 662.035 239 C 663.891 239, 664 238.253, 664 225.500 L 664 212 661.250 212.007 C 658.702 212.013, 658.206 212.748, 654.500 222 C 652.300 227.492, 650.275 231.981, 650 231.974 C 649.725 231.967, 647.783 227.470, 645.684 221.981 C 642.049 212.475, 641.728 212, 638.934 212 L 636 212 636 225.500 M 698 212.947 C 698 213.544, 695.750 219.418, 693 226 C 690.250 232.582, 688 238.200, 688 238.484 C 688 238.768, 688.845 239, 689.879 239 C 691.023 239, 692.243 237.828, 693 236 C 694.194 233.117, 694.488 233, 700.523 233 C 706.603 233, 706.838 233.096, 707.850 236 C 708.554 238.019, 709.567 239, 710.948 239 C 712.077 239, 713 238.858, 713 238.685 C 713 238.512, 710.610 232.549, 707.688 225.435 C 703.368 214.916, 701.967 212.440, 700.188 212.180 C 698.985 212.005, 698 212.350, 698 212.947 M 737 225.500 C 737 238.333, 737.099 239, 739 239 C 740.780 239, 741 238.333, 741 232.927 C 741 227.770, 741.254 226.902, 742.685 227.178 C 743.612 227.356, 745.882 230.089, 747.730 233.251 C 750.005 237.145, 751.720 239, 753.045 239 C 755.590 239, 755.541 238.689, 752.024 232.542 L 749.048 227.341 752.024 225.140 C 755.625 222.478, 755.967 218.500, 752.927 214.635 C 751.045 212.241, 750.220 212, 743.927 212 L 737 212 737 225.500 M 778 213.500 C 778 214.583, 779.111 215, 782 215 L 786 215 786 227 C 786 238.333, 786.111 239, 788 239 C 789.889 239, 790 238.333, 790 227 L 790 215 794 215 C 796.889 215, 798 214.583, 798 213.500 C 798 212.267, 796.222 212, 788 212 C 779.778 212, 778 212.267, 778 213.500 M 903 225.500 L 903 239 911 239 C 918.333 239, 919 238.833, 919 237 C 919 235.222, 918.333 235, 913 235 L 907 235 907 223.500 C 907 212.667, 906.884 212, 905 212 C 903.099 212, 903 212.667, 903 225.500 M 1072 225.500 L 1072 239 1081.073 239 C 1089.176 239, 1090.111 238.813, 1089.810 237.250 C 1089.438 235.322, 1089.367 235.304, 1081.500 235.125 L 1076 235 1076 231 L 1076 227 1082 227 C 1087.333 227, 1088 226.778, 1088 225 C 1088 223.220, 1087.333 223, 1081.940 223 L 1075.879 223 1076.190 219.250 L 1076.500 215.500 1082.750 215.202 C 1087.411 214.980, 1089 214.535, 1089 213.452 C 1089 212.296, 1087.265 212, 1080.500 212 L 1072 212 1072 225.500 M 741 219.500 C 741 223.753, 741.152 224, 743.777 224 C 746.993 224, 751 221.512, 751 219.515 C 751 217.092, 747.955 215, 744.429 215 C 741.032 215, 741 215.042, 741 219.500 M 698.139 222.589 C 696.962 225.663, 696 228.363, 696 228.589 C 696 228.815, 698.073 229, 700.607 229 C 704.599 229, 705.119 228.767, 704.501 227.250 C 704.109 226.287, 703.119 223.588, 702.300 221.250 C 701.482 218.912, 700.692 217, 700.545 217 C 700.398 217, 699.315 219.515, 698.139 222.589 M 493.386 222.745 C 492.349 225.355, 491.350 227.830, 491.167 228.245 C 490.983 228.660, 492.926 229, 495.484 229 C 499.844 229, 500.092 228.859, 499.448 226.750 C 498.342 223.129, 496.137 218, 495.687 218 C 495.459 218, 494.423 220.135, 493.386 222.745 M 951.717 221.136 C 948.395 229.084, 948.377 229, 953.388 229 L 957.911 229 956.491 224.974 C 953.880 217.574, 953.375 217.168, 951.717 221.136" stroke="none" fill="#FAFAFA" fill-rule="evenodd"/>
</svg>