<svg xmlns="http://www.w3.org/2000/svg" width="649" height="701" viewBox="0 0 649 701" version="1.1">
	<path d="M 311.500 1.047 C 246.381 4.798, 181.708 30.098, 128.500 72.639 C 113.315 84.779, 88.214 110.007, 76.374 125.026 C 34.318 178.378, 9.467 238.110, 2.472 302.654 C -0.016 325.620, 0.809 397.989, 3.771 416.568 C 14.230 482.168, 47.147 548.283, 94.795 599.396 C 139.577 647.434, 200.952 681.903, 264 694.424 C 315.085 704.570, 370.039 700.836, 420.500 683.791 C 452.908 672.845, 488.463 653.330, 518.634 629.929 C 532.701 619.019, 559.913 591.832, 572.311 576.301 C 604.743 535.677, 628.501 487.422, 639.911 439 C 647.114 408.429, 648.338 393.068, 647.758 340.500 C 647.269 296.286, 646.537 288.327, 640.535 262 C 618.381 164.819, 551.497 78.763, 463 33.573 C 415.464 9.299, 363.169 -1.928, 311.500 1.047 M 307.757 12.084 C 245.022 16.330, 186.107 39.711, 134.500 80.843 C 119.059 93.150, 94.007 118.182, 81.800 133.500 C 47.582 176.440, 22.770 229.706, 10.529 286.500 C -1.356 341.648, 1.142 391.015, 18.701 448 C 30.287 485.597, 42.432 511.332, 64.477 545 C 117.998 626.736, 203.192 679.764, 294.418 688.124 C 312.246 689.757, 350.235 688.702, 367 686.108 C 419.832 677.932, 468.674 656.248, 513.653 621 C 527.338 610.276, 554.184 583.646, 564.734 570.330 C 605.580 518.774, 632.967 456.543, 642.052 394.646 C 648.854 348.301, 645.720 305.864, 631.960 258 C 599.968 146.718, 519.295 59.651, 416.500 25.465 C 394.235 18.060, 371.858 13.889, 344.500 12.043 C 327.928 10.925, 324.835 10.928, 307.757 12.084 M 314.500 86.575 C 278.600 90.036, 251.676 96.300, 222.377 108.010 C 164.709 131.058, 113.155 174.749, 83.737 225.505 C 65.308 257.301, 54.013 291.336, 50.553 325.500 C 49.827 332.666, 51.402 331.005, 52.448 323.500 C 54.579 308.222, 62.416 284.479, 71.922 264.500 C 93.799 218.520, 127.562 178.233, 168 149.853 C 191.301 133.501, 225.662 117.640, 254.289 110.023 C 284.480 101.990, 304.488 99.581, 335 100.305 C 367.519 101.077, 387.655 104.561, 418.436 114.741 C 475.509 133.618, 522.838 171.024, 557.944 225 C 573.016 248.174, 589.343 287.100, 593.385 309.500 C 596.959 329.302, 596.975 329.350, 596.542 319 C 595.221 287.483, 579.627 242.615, 559.128 211.348 C 508.800 134.583, 426.163 88.675, 334.500 86.559 C 325.700 86.355, 316.700 86.363, 314.500 86.575 M 311 183.591 C 289.073 185.482, 270.450 188.708, 253 193.638 C 199.038 208.883, 149.621 238.569, 106.500 281.644 C 87.866 300.258, 64.160 327.618, 52.352 344.138 L 49.205 348.542 53.723 354.521 C 116.237 437.254, 180.986 485.105, 255.851 503.902 C 315.677 518.922, 374.263 514.421, 433.500 490.252 C 478.728 471.800, 523.694 438.628, 561.836 395.579 C 582.109 372.697, 598.935 351.327, 598.982 348.399 C 599.033 345.281, 577.354 317.974, 558.178 297 C 498.516 231.747, 433.409 195.263, 359.137 185.464 C 347.568 183.937, 319.599 182.849, 311 183.591 M 310 197.650 C 308.075 197.832, 301.550 198.465, 295.500 199.058 C 264.132 202.130, 228.095 212.889, 197.210 228.403 C 154.271 249.973, 115.850 281.009, 79 323.891 C 72.675 331.252, 65.373 339.745, 62.774 342.766 L 58.047 348.257 59.944 350.879 C 63.144 355.302, 76.627 370.761, 90.673 386.113 C 125.211 423.859, 161.714 451.607, 202.290 470.960 C 231.518 484.900, 257.798 492.719, 288 496.462 C 333.703 502.126, 379.746 497.054, 421 481.810 C 428.425 479.066, 443.050 472.628, 453.500 467.503 C 499.941 444.725, 537.806 412.856, 582.369 359.042 C 589.616 350.291, 590.772 348.414, 589.741 347.081 C 571.260 323.198, 548.143 297.971, 529 280.797 C 473.157 230.699, 412.622 203.225, 346.605 198.017 C 334.520 197.064, 317.972 196.898, 310 197.650 M 311 224.099 C 286.491 226.791, 262.930 238.273, 244.509 256.500 C 236.099 264.821, 223.972 280.465, 225.171 281.444 C 225.963 282.090, 343.080 301.127, 344.439 300.830 C 345.672 300.561, 345.053 297.919, 341.081 286.500 C 332.026 260.466, 318.859 224.503, 318.177 223.942 C 317.805 223.636, 314.575 223.706, 311 224.099 M 330 224.741 C 330 226.360, 333.153 235.648, 345.026 269 C 351.193 286.325, 359.583 310.160, 363.670 321.968 C 367.758 333.775, 371.259 343.593, 371.452 343.786 C 371.762 344.095, 404.090 296.064, 412.890 282.221 L 416.245 276.943 412.457 271.221 C 403.620 257.874, 383.477 241.241, 366.883 233.588 C 353.940 227.618, 330 221.876, 330 224.741 M 393.323 329.250 C 361.390 377.378, 355 387.291, 355 388.698 C 355 389.248, 358.938 390.236, 363.750 390.895 C 368.563 391.554, 384.603 393.906, 399.394 396.122 C 421.176 399.385, 426.444 399.900, 427.104 398.832 C 427.552 398.107, 429.484 392.785, 431.398 387.007 C 440.205 360.414, 439.874 330.289, 430.504 305.500 C 426.712 295.470, 422.838 287, 422.042 287 C 421.665 287, 408.742 306.012, 393.323 329.250 M 217.644 294.750 C 215.166 299.590, 210.181 315.230, 208.319 324 C 205.835 335.708, 205.879 360.181, 208.407 371.973 C 211.557 386.673, 220.544 410, 223.056 410 C 223.462 410, 226.622 405.613, 230.079 400.250 C 233.535 394.887, 248.883 371.519, 264.186 348.320 C 279.489 325.121, 292.270 305.461, 292.588 304.631 C 293.012 303.527, 292.272 302.965, 289.834 302.537 C 277.210 300.320, 223.077 292.001, 221.276 292 C 219.857 292, 218.542 292.996, 217.644 294.750 M 264.294 365.181 C 254.571 380.002, 241.910 399.512, 233.214 413.070 C 230.896 416.683, 229 420.141, 229 420.754 C 229 422.598, 240.235 436.125, 246.548 441.882 C 263.912 457.716, 288.690 469.581, 308.671 471.628 C 313.949 472.168, 315 472.024, 315 470.758 C 315 469.923, 305.852 442.379, 294.671 409.550 L 274.342 349.861 264.294 365.181 M 49.491 373.006 C 53.083 409.178, 61.387 437.179, 77.659 468 C 94.249 499.422, 119.727 529.558, 150.500 554.159 C 168.312 568.398, 199.082 585.991, 221 594.468 C 258.812 609.092, 291.100 614.813, 329.478 613.688 C 359.821 612.799, 381.672 608.935, 409.654 599.509 C 453.331 584.797, 489.915 562.130, 522.576 529.545 C 557.815 494.388, 578.984 457.387, 590.971 410 C 594.372 396.555, 597.272 377.820, 596.802 372.339 C 596.517 369.030, 596.291 369.535, 595.163 376 C 581.237 455.793, 522.444 533.340, 447.500 570.763 C 380.209 604.365, 305.889 609.722, 234.983 586.083 C 187.259 570.172, 148.266 543.966, 115.080 505.500 C 82.474 467.706, 59.129 420.837, 52.160 379.179 C 50.062 366.638, 48.499 363.024, 49.491 373.006 M 309.953 424.135 C 315.962 441.936, 322.092 460.048, 323.575 464.385 L 326.272 472.271 333.720 471.641 C 363.926 469.088, 396.223 448.849, 415.134 420.623 C 418.406 415.741, 420.914 411.242, 420.708 410.625 C 420.388 409.664, 325.135 394.681, 305.264 392.465 L 299.028 391.770 309.953 424.135" stroke="none" fill="#0A0A0A" fill-rule="evenodd"/>
</svg>